<?xml version="1.0" standalone="no"?>
<svg viewBox="0 0 200 200" xmlns="http://www.w3.org/2000/svg">
  <path fill="#990000" d="M41.6,-72.8C55.4,-64.1,68.9,-55.9,75.1,-43.8C81.3,-31.7,80.1,-15.9,80.5,0.3C81,16.4,83.2,32.9,77.6,45.9C72,59,58.7,68.8,44.4,76.9C30.2,85.1,15.1,91.6,1.2,89.6C-12.7,87.5,-25.4,76.8,-38.3,67.8C-51.1,58.9,-64,51.7,-72.2,40.6C-80.4,29.6,-83.8,14.8,-83.7,0.1C-83.6,-14.7,-80,-29.4,-73.3,-43C-66.6,-56.5,-56.8,-69,-44.1,-78.2C-31.3,-87.4,-15.7,-93.3,-0.9,-91.8C13.9,-90.4,27.9,-81.4,41.6,-72.8Z" transform="translate(100 100)" />
</svg>
